<?xml version="1.0" standalone="no"?>
<!DOCTYPE svg PUBLIC "-//W3C//DTD SVG 20010904//EN"
 "http://www.w3.org/TR/2001/REC-SVG-20010904/DTD/svg10.dtd">
<svg version="1.0" xmlns="http://www.w3.org/2000/svg"
 width="1200.000000pt" height="428.000000pt" viewBox="0 0 1200.000000 428.000000"
 preserveAspectRatio="xMidYMid meet">

<g transform="translate(0.000000,428.000000) scale(0.100000,-0.100000)"
fill="#000000" stroke="none">
<path d="M1493 4012 c-670 -748 -1003 -1210 -1232 -1710 -277 -604 -334 -1153
-161 -1554 53 -124 140 -248 250 -359 481 -487 1327 -513 2516 -78 198 72 287
109 2944 1246 5447 2329 6140 2626 6137 2630 -2 2 -138 -33 -303 -76 -8287
-2203 -8404 -2235 -8560 -2265 -534 -104 -977 -75 -1271 84 -101 54 -176 114
-264 209 -205 220 -293 506 -268 870 24 334 165 762 374 1131 36 62 64 115 62
116 -1 1 -102 -108 -224 -244z"/>
</g>
</svg>
